<?xml version="1.0" encoding="UTF-8" standalone="no" ?>
<!DOCTYPE svg PUBLIC "-//W3C//DTD SVG 1.1//EN" "http://www.w3.org/Graphics/SVG/1.1/DTD/svg11.dtd">
<svg xmlns="http://www.w3.org/2000/svg" xmlns:xlink="http://www.w3.org/1999/xlink" version="1.1" width="500" height="500" viewBox="0 0 500 500" xml:space="preserve">
<desc>Created with Fabric.js 5.3.0</desc>
<defs>
</defs>
<g transform="matrix(1 0 0 1 250 233.8709677419)" id="tGbplSqRr7ki1H7dCtE1V"  >
<g style=""   >
		<g transform="matrix(0.1333333333 0 0 -0.1333333333 -3.1954890131 12.9332841776)" id="z5sOHJUnXk6QdSPhHbBOi"  >
<path style="stroke: none; stroke-width: 1; stroke-dasharray: none; stroke-linecap: butt; stroke-dashoffset: 0; stroke-linejoin: miter; stroke-miterlimit: 4; fill: rgb(0,0,0); fill-rule: nonzero; opacity: 1;"  transform=" translate(-1251.0338324014, -2168.0003686681)" d="M 1227 3952 C 1217 3942 1210 3930 1210 3926 C 1210 3887 1079 3688 928 3499 C 756 3283 648 3066 598 2835 C 582 2758 577 2698 576 2569 L 575 2404 L 518 2478 C 487 2518 445 2580 425 2616 C 394 2671 385 2680 361 2680 C 328 2680 322 2669 280 2536 C 143 2103 146 1771 290 1464 C 349 1338 400 1263 481 1181 C 644 1018 828 932 1059 910 C 1117 905 1175 900 1188 900 C 1209 900 1210 897 1210 807 C 1210 663 1181 569 1105 464 C 1072 419 1123 345 1169 370 C 1240 407 1310 627 1310 809 L 1310 897 L 1418 909 C 1612 930 1767 986 1905 1085 C 1973 1133 2106 1271 2124 1310 C 2130 1324 2151 1360 2171 1390 C 2219 1463 2284 1634 2306 1745 C 2326 1847 2328 2051 2311 2165 C 2285 2327 2211 2615 2184 2658 C 2155 2703 2132 2687 2085 2585 C 2038 2484 1978 2390 1937 2352 L 1912 2329 L 1926 2386 C 1984 2636 1921 2955 1758 3239 C 1731 3286 1673 3374 1627 3436 C 1582 3498 1508 3600 1462 3662 C 1417 3724 1359 3815 1334 3865 C 1278 3976 1261 3990 1227 3952 z M 1218 3303 L 1220 2895 L 1152 2967 C 1114 3007 1068 3067 1049 3101 C 988 3209 975 3225 949 3228 C 908 3233 894 3208 911 3157 C 933 3090 1030 2953 1129 2848 L 1220 2752 L 1218 2388 L 1215 2025 L 1132 2104 C 1031 2201 970 2280 919 2383 C 887 2445 875 2460 857 2460 C 830 2460 810 2443 810 2420 C 811 2391 856 2295 905 2220 C 935 2175 1005 2095 1085 2017 L 1215 1889 L 1218 1542 C 1220 1351 1218 1185 1215 1172 C 1209 1149 1209 1149 1172 1185 C 1152 1205 1096 1253 1048 1292 C 1000 1331 944 1387 924 1415 C 893 1461 887 1478 881 1550 C 876 1614 870 1635 855 1646 C 831 1664 825 1664 806 1644 C 797 1635 790 1612 790 1589 C 790 1537 777 1540 752 1598 C 715 1683 708 1737 715 1867 L 722 1990 L 696 2001 C 677 2010 667 2010 656 2001 C 643 1990 623 1902 617 1820 C 614 1786 613 1787 578 1860 C 537 1945 516 2019 501 2135 C 488 2232 480 2350 487 2350 C 490 2350 502 2338 514 2323 C 530 2302 724 2078 771 2026 C 775 2021 791 2020 805 2024 C 839 2033 835 2055 781 2142 C 614 2408 642 2855 847 3215 C 888 3288 1007 3455 1053 3505 C 1063 3516 1103 3567 1142 3618 C 1181 3668 1213 3710 1214 3710 C 1215 3710 1216 3527 1218 3303 z M 1446 3515 C 1607 3298 1685 3180 1730 3085 C 1827 2880 1867 2649 1840 2455 C 1816 2291 1781 2195 1703 2077 C 1648 1995 1477 1818 1378 1742 L 1310 1690 L 1310 1967 C 1310 2120 1313 2255 1316 2267 C 1319 2279 1350 2308 1383 2331 C 1469 2391 1621 2546 1659 2613 C 1703 2691 1698 2740 1645 2740 C 1629 2740 1616 2726 1596 2690 C 1554 2613 1501 2551 1408 2473 C 1361 2433 1320 2400 1316 2400 C 1313 2400 1310 2691 1310 3047 C 1310 3413 1314 3690 1319 3685 C 1323 3679 1381 3603 1446 3515 z M 390 2475 C 395 2461 402 2367 404 2267 C 411 1965 436 1893 625 1615 C 742 1443 846 1330 1001 1206 C 1082 1142 1160 1052 1160 1023 C 1160 1003 1018 1006 927 1029 C 775 1068 609 1172 517 1286 C 467 1347 400 1444 400 1454 C 400 1458 433 1434 473 1402 C 604 1297 742 1220 799 1220 C 830 1220 862 1252 854 1274 C 851 1281 816 1302 775 1323 C 633 1393 400 1559 339 1633 C 308 1671 273 1772 294 1764 C 317 1755 320 1801 299 1841 C 284 1872 280 1900 280 1982 C 280 2039 285 2117 290 2155 C 304 2254 362 2500 372 2500 C 377 2500 385 2489 390 2475 z M 2174 2344 C 2206 2209 2207 2174 2180 2160 C 2144 2141 2160 2080 2201 2080 C 2227 2080 2235 1987 2222 1850 C 2203 1665 2203 1665 2100 1590 C 2051 1554 1971 1502 1923 1474 C 1774 1386 1745 1366 1742 1344 C 1740 1330 1747 1320 1766 1311 C 1790 1301 1801 1303 1864 1333 C 1903 1352 1979 1397 2033 1433 C 2086 1469 2130 1496 2130 1492 C 2130 1488 2107 1449 2079 1405 C 1985 1258 1818 1122 1656 1059 C 1580 1030 1445 1000 1388 1000 C 1331 1000 1355 1032 1551 1215 C 1689 1345 1923 1656 2005 1819 C 2069 1948 2113 2127 2090 2170 C 2078 2192 2038 2197 2022 2178 C 2017 2171 2009 2145 2005 2120 C 1992 2028 1958 1924 1917 1846 L 1875 1765 L 1870 1823 C 1865 1880 1852 1900 1820 1900 C 1784 1900 1777 1885 1786 1819 C 1801 1704 1785 1645 1713 1547 L 1675 1495 L 1668 1563 C 1661 1641 1648 1662 1611 1658 C 1585 1655 1585 1654 1588 1575 C 1593 1401 1568 1343 1444 1244 C 1394 1204 1343 1159 1331 1144 L 1310 1117 L 1310 1322 C 1310 1440 1314 1539 1321 1556 C 1327 1573 1360 1607 1398 1637 C 1573 1773 1704 1909 1780 2030 C 1807 2073 1875 2153 1950 2229 C 2035 2314 2085 2374 2105 2412 C 2121 2444 2138 2466 2141 2462 C 2145 2458 2159 2405 2174 2344 z" stroke-linecap="round" />
</g>
		<g transform="matrix(0.1333333333 0 0 -0.1333333333 -52.5810574658 -58.0046291207)" id="tnZz1j4iLIfID3-BeUjno"  >
<path style="stroke: none; stroke-width: 1; stroke-dasharray: none; stroke-linecap: butt; stroke-dashoffset: 0; stroke-linejoin: miter; stroke-miterlimit: 4; fill: rgb(0,0,0); fill-rule: nonzero; opacity: 1;"  transform=" translate(-880.6420690062, -2700.0347184054)" d="M 844 2725 C 829 2702 829 2698 844 2675 C 864 2645 883 2643 910 2670 C 934 2694 934 2699 914 2728 C 894 2757 864 2756 844 2725 z" stroke-linecap="round" />
</g>
		<g transform="matrix(0.1333333333 0 0 -0.1333333333 -46.6766790864 60.7560553232)" id="M6ZB7QJuLxmQn55eJuBUN"  >
<path style="stroke: none; stroke-width: 1; stroke-dasharray: none; stroke-linecap: butt; stroke-dashoffset: 0; stroke-linejoin: miter; stroke-miterlimit: 4; fill: rgb(0,0,0); fill-rule: nonzero; opacity: 1;"  transform=" translate(-924.9249068518, -1809.3295850763)" d="M 892 1848 C 873 1829 877 1782 899 1770 C 910 1765 923 1760 929 1760 C 945 1760 970 1790 970 1810 C 970 1849 918 1874 892 1848 z" stroke-linecap="round" />
</g>
		<g transform="matrix(0.1333333333 0 0 -0.1333333333 -28.7995079812 108.1580232376)" id="StSx8cyoESVnlXrc9oi7i"  >
<path style="stroke: none; stroke-width: 1; stroke-dasharray: none; stroke-linecap: butt; stroke-dashoffset: 0; stroke-linejoin: miter; stroke-miterlimit: 4; fill: rgb(0,0,0); fill-rule: nonzero; opacity: 1;"  transform=" translate(-1059.0036901409, -1453.8148257181)" d="M 997 1514 C 993 1510 990 1497 990 1485 C 990 1461 1058 1390 1081 1390 C 1103 1390 1134 1426 1127 1444 C 1113 1479 1015 1532 997 1514 z" stroke-linecap="round" />
</g>
		<g transform="matrix(0.1333333333 0 0 -0.1333333333 24.1923516521 -138)" id="Z8gPuGj6kvBWUI98IMrmE"  >
<path style="stroke: none; stroke-width: 1; stroke-dasharray: none; stroke-linecap: butt; stroke-dashoffset: 0; stroke-linejoin: miter; stroke-miterlimit: 4; fill: rgb(0,0,0); fill-rule: nonzero; opacity: 1;"  transform=" translate(-1456.4426373906, -3300)" d="M 1420 3325 C 1379 3283 1377 3279 1390 3255 C 1397 3241 1410 3230 1418 3230 C 1435 3230 1530 3300 1530 3312 C 1530 3331 1497 3370 1481 3370 C 1472 3370 1444 3350 1420 3325 z" stroke-linecap="round" />
</g>
		<g transform="matrix(0.1333333333 0 0 -0.1333333333 31.8906489461 -83.9729070549)" id="pw1389yVcvTxRmLkfexbZ"  >
<path style="stroke: none; stroke-width: 1; stroke-dasharray: none; stroke-linecap: butt; stroke-dashoffset: 0; stroke-linejoin: miter; stroke-miterlimit: 4; fill: rgb(0,0,0); fill-rule: nonzero; opacity: 1;"  transform=" translate(-1514.1798670961, -2894.7968029121)" d="M 1482 2928 C 1454 2900 1475 2850 1515 2850 C 1557 2850 1574 2894 1544 2924 C 1526 2943 1499 2945 1482 2928 z" stroke-linecap="round" />
</g>
</g>
</g>
</svg>